<?xml version="1.0" standalone="no"?><!DOCTYPE svg PUBLIC "-//W3C//DTD SVG 1.1//EN" "http://www.w3.org/Graphics/SVG/1.1/DTD/svg11.dtd"><svg t="1512485199460" class="icon" style="" viewBox="0 0 1024 1024" version="1.1" xmlns="http://www.w3.org/2000/svg" p-id="10465" xmlns:xlink="http://www.w3.org/1999/xlink" width="500" height="500"><defs><style type="text/css"></style></defs><path d="M1016.32 476.16l-450.56-453.12c-15.36-15.36-35.84-23.04-56.32-23.04-20.48 0-38.4 7.68-53.76 23.04l-448 450.56c-5.12 5.12-7.68 12.8-7.68 20.48s2.56 12.8 7.68 15.36c5.12 5.12 10.24 7.68 17.92 7.68s12.8-2.56 17.92-7.68l448-450.56c7.68-5.12 12.8-7.68 20.48-7.68s12.8 2.56 17.92 7.68l450.56 453.12c5.12 5.12 10.24 7.68 17.92 7.68 5.12 0 10.24-2.56 15.36-5.12 5.12-2.56 10.24-10.24 10.24-17.92s-2.56-15.36-7.68-20.48z" fill="#ffffff" p-id="10466"></path><path d="M99.84 412.16v532.48c0 40.96 33.28 76.8 76.8 76.8H414.72v-99.84c0-53.76 43.52-97.28 97.28-97.28s97.28 43.52 97.28 97.28v99.84h238.08c40.96 0 76.8-33.28 76.8-76.8v-532.48l-412.16-396.8-412.16 396.8z" fill="#ffffff" p-id="10467"></path></svg>