<?xml version="1.0" standalone="no"?><!DOCTYPE svg PUBLIC "-//W3C//DTD SVG 1.1//EN" "http://www.w3.org/Graphics/SVG/1.1/DTD/svg11.dtd"><svg t="1512484925464" class="icon" style="" viewBox="0 0 1024 1024" version="1.1" xmlns="http://www.w3.org/2000/svg" p-id="4645" xmlns:xlink="http://www.w3.org/1999/xlink" width="500" height="500"><defs><style type="text/css"></style></defs><path d="M509.44 524.8c-7.68-5.12-12.8-2.56-12.8 5.12v179.2c0 10.24 12.8 12.8 17.92 5.12l97.28-84.48c7.68-5.12 7.68-15.36 0-20.48l-102.4-84.48z" fill="#ffffff" p-id="4646"></path><path d="M896 230.4h-220.16l38.4-120.32c5.12-12.8-2.56-28.16-17.92-33.28-12.8-5.12-28.16 2.56-33.28 17.92L622.08 230.4h-192l-48.64-135.68c-5.12-12.8-20.48-20.48-33.28-15.36-12.8 5.12-20.48 20.48-15.36 33.28L376.32 230.4H153.6c-51.2 0-102.4 51.2-102.4 102.4v563.2c0 51.2 51.2 102.4 102.4 102.4h742.4c51.2 0 102.4-51.2 102.4-102.4V332.8c0-51.2-51.2-102.4-102.4-102.4z m-230.4 427.52l-158.72 128c-28.16 23.04-58.88 7.68-58.88-28.16V486.4c0-35.84 33.28-51.2 58.88-28.16l158.72 128c23.04 20.48 23.04 51.2 0 71.68z" fill="#ffffff" p-id="4647"></path></svg>