<?xml version="1.0" standalone="no"?><!DOCTYPE svg PUBLIC "-//W3C//DTD SVG 1.1//EN" "http://www.w3.org/Graphics/SVG/1.1/DTD/svg11.dtd"><svg t="1513334495739" class="icon" style="" viewBox="0 0 1024 1024" version="1.1" xmlns="http://www.w3.org/2000/svg" p-id="14519" xmlns:xlink="http://www.w3.org/1999/xlink" width="800" height="800"><defs><style type="text/css"></style></defs><path d="M810.24 411.84H351.04V241.792c0-56.32 68.48-119.04 152.96-119.04s153.152 62.72 153.152 119.04v51.008h0.576a59.392 59.392 0 0 0 117.76 0h0.64v-51.008c0-131.52-121.856-238.08-272.128-238.08-150.208 0-272 106.56-272 238.08v170.048h-34.112C141.632 411.84 96 457.536 96 513.856v408.128C96 978.304 141.696 1024 197.952 1024h612.224c56.384 0 102.016-45.632 102.016-102.016V513.92c0-56.32-45.632-102.016-102.016-102.016z m-255.104 376.704v46.464c0 29.248-22.848 52.928-51.072 52.928-28.16 0-51.008-23.68-51.008-52.928v-46.464a117.44 117.44 0 0 1-68.032-106.24c0-64.832 53.376-117.44 119.04-117.44 65.792 0 119.04 52.608 119.04 117.504 0 46.848-27.776 87.296-67.968 106.176z" p-id="14520" fill="#ffffff"></path></svg>